<?xml version="1.0" encoding="UTF-8" standalone="no"?>
<!-- Created with Inkscape (http://www.inkscape.org/) -->

<svg
   xmlns:dc="http://purl.org/dc/elements/1.1/"
   xmlns:cc="http://creativecommons.org/ns#"
   xmlns:rdf="http://www.w3.org/1999/02/22-rdf-syntax-ns#"
   xmlns:svg="http://www.w3.org/2000/svg"
   xmlns="http://www.w3.org/2000/svg"
   xmlns:sodipodi="http://sodipodi.sourceforge.net/DTD/sodipodi-0.dtd"
   xmlns:inkscape="http://www.inkscape.org/namespaces/inkscape"
   version="1.1"
   width="192"
   height="50"
   id="svg2"
   inkscape:version="0.48.3.1 r9886"
   sodipodi:docname="iaik.svg">
  <sodipodi:namedview
     pagecolor="#ffffff"
     bordercolor="#666666"
     borderopacity="1"
     objecttolerance="10"
     gridtolerance="10"
     guidetolerance="10"
     inkscape:pageopacity="0"
     inkscape:pageshadow="2"
     inkscape:window-width="1280"
     inkscape:window-height="751"
     id="namedview22"
     showgrid="false"
     inkscape:zoom="5.76"
     inkscape:cx="100"
     inkscape:cy="37.5"
     inkscape:window-x="0"
     inkscape:window-y="25"
     inkscape:window-maximized="1"
     inkscape:current-layer="svg2" />
  <defs
     id="defs4" />
  <metadata
     id="metadata7">
    <rdf:RDF>
      <cc:Work
         rdf:about="">
        <dc:format>image/svg+xml</dc:format>
        <dc:type
           rdf:resource="http://purl.org/dc/dcmitype/StillImage" />
        <dc:title />
      </cc:Work>
    </rdf:RDF>
  </metadata>
  <g
     transform="matrix(0.19473794,0,0,0.19473794,-2.3931984,-138.7736)"
     id="layer1">
    <rect
       width="23.017799"
       height="123.66836"
       x="15.959007"
       y="126.5625"
       transform="translate(0,652.36218)"
       id="rect4145"
       style="fill:#000000;fill-opacity:1;stroke:none" />
    <path
       d="m 92.0625,126.5625 -42.34375,123.65625 22.5,0 9.625,-28.25 45.75,0 9.59375,28.25 22.5,0 -42.34375,-123.65625 -25.28125,0 z m 12.65625,26.6875 15.9375,48 -31.90625,0 15.96875,-48 z"
       transform="translate(0,652.36218)"
       id="path4175"
       style="fill:#000000;fill-opacity:1;stroke:none"
       inkscape:connector-curvature="0" />
    <rect
       width="23.017799"
       height="123.66836"
       x="172.50154"
       y="778.92468"
       id="rect4145-7"
       style="fill:#000000;fill-opacity:1;stroke:none" />
    <path
       d="m 216.06752,778.92468 23.0178,0 0,55.12153 46.44097,-55.12153 29.71422,0 -42.34121,48.22494 43.79677,75.44342 -28.74042,0 -30.8807,-57.69304 -17.98963,20.17919 0,37.51385 -23.0178,0 z"
       id="rect4145-7-4"
       style="fill:#000000;fill-opacity:1;stroke:none"
       inkscape:connector-curvature="0" />
    <rect
       width="123.69791"
       height="123.66836"
       x="327.25696"
       y="126.5625"
       transform="translate(0,652.36218)"
       id="rect4233"
       style="fill:#f70146;fill-opacity:1;stroke:none" />
    <rect
       width="123.69791"
       height="123.66836"
       x="387.97394"
       y="839.71814"
       id="rect4233-4"
       style="fill:#f70146;fill-opacity:1;stroke:none" />
    <rect
       width="123.69791"
       height="123.66836"
       x="462.02258"
       y="778.92468"
       id="rect4233-4-1"
       style="fill:#f70146;fill-opacity:1;stroke:none" />
    <rect
       width="123.69791"
       height="123.66836"
       x="597.00525"
       y="778.92468"
       id="rect4233-4-1-7"
       style="fill:#f70146;fill-opacity:1;stroke:none" />
    <rect
       width="123.69791"
       height="123.66836"
       x="536.24133"
       y="717.52454"
       id="rect4233-4-1-7-6"
       style="fill:#f70146;fill-opacity:1;stroke:none" />
    <rect
       width="40.80835"
       height="40.798603"
       x="953.75171"
       y="922.58789"
       id="rect4233-4-1-7-60"
       style="fill:#f70146;fill-opacity:1;stroke:none" />
    <path
       d="m 733.1936,126.5625 101.58522,0 0,20.85552 -40.08882,-2e-5 0,102.813 -21.829,-1.4e-4 0,-102.81284 -39.6674,0 z"
       transform="translate(0,652.36218)"
       id="rect4325"
       style="fill:#000100;fill-opacity:1;stroke:none"
       inkscape:connector-curvature="0" />
    <path
       d="m 844.6875,126.5625 0,86 0.0312,0 c 0.17166,21.10831 19.74338,41.44358 51.96875,41.5625 0.0947,3.5e-4 0.18639,0 0.28125,0 32.22537,-0.11892 51.79709,-20.45419 51.96875,-41.5625 l 0.0312,0 0,-86 -24.5,0 0,85.3125 c -0.0811,0.69952 -0.10103,1.30908 -0.65625,2.46875 -7.52986,15.72629 -15.41629,18.05612 -26.84375,18.09375 -0.0958,0 -0.18595,3.1e-4 -0.28125,0 -11.42746,-0.0376 -19.31389,-2.36746 -26.84375,-18.09375 -0.55522,-1.15967 -0.57515,-1.76923 -0.65625,-2.46875 l 0,-85.3125 -24.5,0 z"
       transform="translate(0,652.36218)"
       id="path4339"
       style="fill:#000100;fill-opacity:1;stroke:none"
       inkscape:connector-curvature="0" />
    <path
       d="m 822.592,309.88872 c -5.61774,2.6735 -12.80711,4.21121 -21.68984,4.21121 -16.31041,0 -29.53261,-13.2222 -29.53261,-29.53261 0,-16.31041 13.2222,-29.53261 29.53261,-29.53261 7.84109,0 14.08616,0.77814 19.04884,2.18975 l 0,10.14303 c -6.93667,-3.86506 -17.77877,-4.59674 -23.7707,-1.45443 -16.98217,8.90585 -12.89119,27.79631 -4.40583,33.86985 8.67075,6.20624 20.27853,2.57009 20.27853,2.57009 l 0,-14.014 -13.028,0 0,-8.453 23.567,0 z"
       transform="translate(0,652.36218)"
       id="path4390"
       style="fill:#000100;fill-opacity:1;stroke:none"
       inkscape:connector-curvature="0" />
    <path
       d="m 834.01,311.02431 11.25091,0 9e-5,-23.32187 c 0,0 3.39407,-9.15623 9.19576,-9.30403 2.01689,-0.0514 5.51751,2.48828 5.51751,2.48828 l 0,-10.661 c 0,0 -1.22567,-1.2098 -4.51504,-1.2098 -5.19748,0 -10.19823,8.842 -10.19823,8.842 l 0,-7.63178 -11.251,-3e-4 z"
       transform="translate(0,652.36218)"
       id="path4395"
       style="fill:#000100;fill-opacity:1;stroke:none"
       inkscape:connector-curvature="0" />
    <path
       d="m 910.065,270.22569 35.377,0 0,9.47095 -23.10766,23.15191 23.10766,-4.3e-4 0,8.17576 -35.377,4.9e-4 0,-9.90675 22.02483,-22.0701 -22.02483,0 z"
       transform="translate(0,652.36218)"
       id="path4397"
       style="fill:#000100;fill-opacity:1;stroke:none"
       inkscape:connector-curvature="0" />
    <path
       d="m 883.34375,269.03125 c -5.96934,0 -14.6875,4.375 -14.6875,4.375 l -0.0937,8.71875 c 0.15299,0.0565 3.98338,-5.125 14.25,-5.125 4.11861,0 8.33707,3.25763 9.46875,5.09375 l 0.15625,5.09375 0,0.40625 c -2.71226,-1.00267 -7.11741,-1.71875 -10.25,-1.71875 -10.90036,0 -19.71875,6.07335 -19.71875,13.59375 0,6.50601 6.59571,11.96324 15.4375,13.3125 3.89508,0.51312 10.79886,-0.58358 14.40625,-8.3125 l -0.0625,6.5625 9.875,0 0,-27.28125 -0.40625,-4.1875 c -0.64918,-6.02819 -8.10838,-10.53125 -18.375,-10.53125 z m -0.625,23.1875 8.65625,0 0,6.15625 c -6.3861,7.06452 -13.97097,7.44988 -16.6875,4.84375 -4.47977,-4.29772 -0.78971,-10.25572 8.03125,-11 z"
       transform="translate(0,652.36218)"
       id="path4409"
       style="fill:#000100;fill-opacity:1;stroke:none"
       inkscape:connector-curvature="0" />
  </g>
</svg>
